<svg version="1.1" id="Layer_1" xmlns="http://www.w3.org/2000/svg" xmlns:xlink="http://www.w3.org/1999/xlink" x="0px" y="0px"
	 width="100%" viewBox="0 0 2000 2250" enable-background="new 0 0 2000 2250" xml:space="preserve">
<path fill="#B07444" opacity="1.000000" stroke="none" 
	d="
M2.000000,920.000000 
	C2.000000,614.067261 2.000000,308.134521 2.000000,2.100898 
	C668.452820,2.100898 1334.905640,2.100898 2002.000000,2.100898 
	C2002.000000,301.386749 2002.000000,600.773987 2001.564087,901.085999 
	C2001.128174,902.010803 2000.266968,901.873657 2000.166016,900.968018 
	C1999.499878,891.777893 1999.135620,883.474060 1998.336426,875.212219 
	C1994.059570,830.997620 1985.434326,787.721741 1969.865845,745.996582 
	C1948.960938,689.969116 1916.761719,641.861084 1870.061157,603.935852 
	C1827.170654,569.104858 1778.352173,544.667603 1727.202393,525.184753 
	C1677.479980,506.245667 1626.996826,489.236115 1576.516113,472.372345 
	C1513.958252,451.474060 1452.067383,429.139282 1393.659302,398.076813 
	C1355.459961,377.761780 1317.086670,357.774139 1278.818604,337.587891 
	C1230.455078,312.076324 1180.947388,289.222046 1128.470825,273.384796 
	C1076.743530,257.773682 1024.123535,250.587875 969.947815,255.479172 
	C925.835571,259.461884 883.546204,270.420288 842.204590,285.674255 
	C781.416504,308.103516 724.857544,339.334229 667.752686,369.466553 
	C634.793579,386.857971 601.695923,404.040588 568.126831,420.208801 
	C524.569336,441.187805 478.604156,456.141479 432.969482,471.822174 
	C389.857269,486.636169 346.485016,500.720032 303.596588,516.151733 
	C253.368301,534.224426 204.916672,556.133179 160.562408,586.385498 
	C110.041153,620.844116 72.569351,666.051819 47.375080,721.650024 
	C20.175644,781.673279 9.854292,845.399536 5.621816,910.491638 
	C5.411035,913.733276 4.679985,916.941162 3.645514,920.095276 
	C2.733227,920.017273 2.366614,920.008667 2.000000,920.000000 
z"/>
<path fill="#B07444" opacity="1.000000" stroke="none" 
	d="
M2002.000000,1348.000000 
	C2002.000000,1649.267212 2002.000000,1950.534302 2002.000000,2251.900879 
	C1335.545898,2251.900879 669.091675,2251.900879 2.000000,2251.900879 
	C2.000000,1947.279907 2.000000,1642.559448 2.532622,1336.981689 
	C3.774792,1336.195312 4.484341,1336.266235 5.364933,1337.232300 
	C6.912528,1355.012939 7.881864,1371.943481 9.743594,1388.775146 
	C14.886759,1435.273682 24.942699,1480.582153 43.067802,1523.930542 
	C69.411369,1586.934570 111.123405,1637.047241 168.427383,1674.134033 
	C208.037094,1699.769165 250.539398,1719.734253 294.818726,1735.579590 
	C354.952515,1757.098877 415.581116,1777.232300 475.932098,1798.148926 
	C516.216492,1812.110840 555.919739,1827.546387 593.817017,1847.240967 
	C637.534729,1869.960571 681.230103,1892.725220 724.796875,1915.732422 
	C763.100098,1935.959717 802.085510,1954.659302 842.779114,1969.603760 
	C899.733032,1990.519653 958.005310,2003.480225 1019.271851,2000.542114 
	C1047.328003,1999.196411 1074.861938,1995.325073 1102.065308,1988.798218 
	C1153.166382,1976.537476 1201.392212,1956.448730 1248.170044,1933.002197 
	C1289.225220,1912.424438 1329.697266,1890.666748 1370.189697,1868.987061 
	C1410.437134,1847.438599 1451.229980,1826.992676 1494.261963,1811.687866 
	C1556.014893,1789.724976 1618.223633,1769.047974 1680.114746,1747.468628 
	C1724.471069,1732.003296 1768.004639,1714.507324 1809.175903,1691.645264 
	C1839.277832,1674.929688 1867.500610,1655.503784 1892.078125,1631.270264 
	C1922.303955,1601.468018 1945.324463,1566.635376 1962.030640,1527.662842 
	C1986.597534,1470.352783 1997.432739,1410.085205 2000.689697,1348.055664 
	C2001.122437,1347.982788 2002.000000,1348.000000 2002.000000,1348.000000 
z"/>
<path fill="#EFD9B6" opacity="1.000000" stroke="none"
	d="
M2000.256836,1348.128418 
	C1997.432739,1410.085205 1986.597534,1470.352783 1962.030640,1527.662842 
	C1945.324463,1566.635376 1922.303955,1601.468018 1892.078125,1631.270264 
	C1867.500610,1655.503784 1839.277832,1674.929688 1809.175903,1691.645264 
	C1768.004639,1714.507324 1724.471069,1732.003296 1680.114746,1747.468628 
	C1618.223633,1769.047974 1556.014893,1789.724976 1494.261963,1811.687866 
	C1451.229980,1826.992676 1410.437134,1847.438599 1370.189697,1868.987061 
	C1329.697266,1890.666748 1289.225220,1912.424438 1248.170044,1933.002197 
	C1201.392212,1956.448730 1153.166382,1976.537476 1102.065308,1988.798218 
	C1074.861938,1995.325073 1047.328003,1999.196411 1019.271851,2000.542114 
	C958.005310,2003.480225 899.733032,1990.519653 842.779114,1969.603760 
	C802.085510,1954.659302 763.100098,1935.959717 724.796875,1915.732422 
	C681.230103,1892.725220 637.534729,1869.960571 593.817017,1847.240967 
	C555.919739,1827.546387 516.216492,1812.110840 475.932098,1798.148926 
	C415.581116,1777.232300 354.952515,1757.098877 294.818726,1735.579590 
	C250.539398,1719.734253 208.037094,1699.769165 168.427383,1674.134033 
	C111.123405,1637.047241 69.411369,1586.934570 43.067802,1523.930542 
	C24.942699,1480.582153 14.886759,1435.273682 9.743594,1388.775146 
	C7.881864,1371.943481 6.912528,1355.012939 5.258847,1336.422119 
	C4.815922,1330.797363 4.915557,1326.842407 4.399508,1322.969727 
	C3.994099,1319.927246 2.828124,1316.986084 2.000006,1314.000000 
	C2.000000,1254.624878 2.000000,1195.249756 2.663833,1134.514160 
	C4.862738,1128.569458 5.779599,1124.047729 2.000000,1120.000000 
	C2.000000,1061.291504 2.000000,1002.583069 2.580327,942.333191 
	C3.504164,933.916077 3.847672,927.040405 4.191185,920.164734 
	C4.679985,916.941162 5.411035,913.733276 5.621816,910.491638 
	C9.854292,845.399536 20.175644,781.673279 47.375080,721.650024 
	C72.569351,666.051819 110.041153,620.844116 160.562408,586.385498 
	C204.916672,556.133179 253.368301,534.224426 303.596588,516.151733 
	C346.485016,500.720032 389.857269,486.636169 432.969482,471.822174 
	C478.604156,456.141479 524.569336,441.187805 568.126831,420.208801 
	C601.695923,404.040588 634.793579,386.857971 667.752686,369.466553 
	C724.857544,339.334229 781.416504,308.103516 842.204590,285.674255 
	C883.546204,270.420288 925.835571,259.461884 969.947815,255.479172 
	C1024.123535,250.587875 1076.743530,257.773682 1128.470825,273.384796 
	C1180.947388,289.222046 1230.455078,312.076324 1278.818604,337.587891 
	C1317.086670,357.774139 1355.459961,377.761780 1393.659302,398.076813 
	C1452.067383,429.139282 1513.958252,451.474060 1576.516113,472.372345 
	C1626.996826,489.236115 1677.479980,506.245667 1727.202393,525.184753 
	C1778.352173,544.667603 1827.170654,569.104858 1870.061157,603.935852 
	C1916.761719,641.861084 1948.960938,689.969116 1969.865845,745.996582 
	C1985.434326,787.721741 1994.059570,830.997620 1998.336426,875.212219 
	C1999.135620,883.474060 1999.499878,891.777893 2000.070068,901.823975 
	C2000.716797,908.390320 2001.358398,913.195190 2002.000000,918.000000 
	C2002.000000,1054.708496 2002.000000,1191.416870 2001.454102,1329.672485 
	C2000.691162,1336.855835 2000.473999,1342.492188 2000.256836,1348.128418 
M536.042847,503.101410 
	C520.078979,508.862152 504.190521,514.842834 488.137238,520.342590 
	C439.328430,537.064209 390.333923,553.251892 341.645935,570.315796 
	C301.094391,584.527954 261.358887,600.775635 223.948059,622.209900 
	C196.628555,637.862427 171.214722,656.102539 150.105759,679.582581 
	C116.164062,717.336853 95.983551,762.216248 83.848518,811.074219 
	C74.674896,848.008911 70.818748,885.695618 68.489563,923.525085 
	C67.018387,947.419128 66.715248,971.398621 66.423363,995.346375 
	C66.261475,1008.627991 67.628349,1021.924927 67.569359,1035.211670 
	C67.291367,1097.828491 66.611389,1160.443726 66.398170,1223.060547 
	C66.325699,1244.346436 67.612297,1265.636597 67.548630,1286.922729 
	C67.445969,1321.236206 69.485008,1355.389526 73.851021,1389.402222 
	C78.184692,1423.162842 85.439552,1456.230103 97.568626,1488.150391 
	C119.487442,1545.834961 156.182755,1591.198120 208.793991,1623.825073 
	C243.206345,1645.166016 279.629822,1662.285522 317.608765,1675.812134 
	C380.922150,1698.362061 444.687439,1719.640259 508.188293,1741.667725 
	C556.694946,1758.493896 603.588989,1779.133667 649.124084,1802.809570 
	C697.550781,1827.989136 745.553223,1853.996826 794.225464,1878.687866 
	C832.861023,1898.287354 872.939392,1914.566650 915.103455,1925.252075 
	C954.387512,1935.207520 994.068054,1940.077881 1034.619141,1935.755615 
	C1070.564087,1931.924438 1105.311890,1923.175293 1139.108521,1910.599854 
	C1175.649658,1897.003174 1211.109741,1880.991699 1245.452637,1862.470825 
	C1272.695801,1847.778809 1300.262817,1833.688721 1327.574097,1819.121582 
	C1369.300537,1796.865479 1411.119873,1774.653931 1455.557373,1758.307251 
	C1508.638184,1738.781006 1562.134399,1720.359131 1615.667480,1702.094604 
	C1666.732666,1684.672119 1717.714478,1667.141479 1765.806519,1642.317749 
	C1793.726929,1627.906128 1820.015259,1611.023438 1843.030518,1589.471924 
	C1876.864990,1557.789062 1899.365845,1518.970947 1914.087402,1475.353027 
	C1932.041138,1422.159424 1937.465942,1366.932495 1939.457886,1311.346680 
	C1940.685791,1277.083496 1939.614502,1242.740479 1939.711792,1208.433594 
	C1939.859131,1156.449951 1940.322266,1104.466431 1940.285522,1052.483032 
	C1940.248047,999.568970 1941.409668,946.643005 1936.528564,893.804749 
	C1933.243652,858.246887 1927.820435,823.175110 1917.413818,789.002808 
	C1896.293579,719.651550 1856.119141,665.086914 1793.178223,627.657166 
	C1757.799683,606.618164 1720.578735,589.739807 1681.975464,576.027283 
	C1622.707886,554.974243 1563.030151,535.077576 1503.556152,514.603882 
	C1452.150024,496.907532 1402.575317,474.962433 1354.347900,449.922394 
	C1302.363403,422.931793 1250.632446,395.437897 1198.311523,369.116211 
	C1163.768799,351.738525 1127.514160,338.383789 1089.964600,328.790588 
	C1052.579346,319.239349 1014.591431,315.072144 976.163940,318.597351 
	C934.491760,322.420197 894.473328,333.628143 855.614197,349.007843 
	C817.797852,363.974823 781.370911,381.874969 745.500244,400.983826 
	C714.063721,417.730530 682.374634,434.003571 650.958801,450.788574 
	C614.210754,470.422516 576.428040,487.728546 536.042847,503.101410 
z"/>
<path fill="#7E8B87" opacity="1.000000" stroke="none"
	d="
M2.000006,1314.916138 
	C2.828124,1316.986084 3.994099,1319.927246 4.399508,1322.969727 
	C4.915557,1326.842407 4.815922,1330.797363 5.087803,1335.526855 
	C4.484341,1336.266235 3.774792,1336.195312 2.532622,1336.062256 
	C2.000000,1329.277466 2.000000,1322.554810 2.000006,1314.916138 
z"/>
<path fill="#85918A" opacity="1.000000" stroke="none"
	d="
M3.645511,920.095276 
	C3.847672,927.040405 3.504164,933.916077 2.580327,941.395874 
	C2.000000,935.277405 2.000000,928.554871 2.000000,920.916138 
	C2.366614,920.008667 2.733227,920.017273 3.645511,920.095276 
z"/>
<path fill="#848F89" opacity="1.000000" stroke="none"
	d="
M2000.689697,1348.055664 
	C2000.473999,1342.492188 2000.691162,1336.855835 2001.454102,1330.609863 
	C2002.000000,1335.400024 2002.000000,1340.800049 2002.000000,1347.100098 
	C2002.000000,1348.000000 2001.122437,1347.982788 2000.689697,1348.055664 
z"/>
<path fill="#818E86" opacity="1.000000" stroke="none"
	d="
M2002.000000,917.111694 
	C2001.358398,913.195190 2000.716797,908.390320 2000.171143,902.729614 
	C2000.266968,901.873657 2001.128174,902.010803 2001.564087,902.005371 
	C2002.000000,906.741150 2002.000000,911.482239 2002.000000,917.111694 
z"/>
<path fill="#86928B" opacity="1.000000" stroke="none" 
	d="
M2.000000,1120.875000 
	C5.779599,1124.047729 4.862738,1128.569458 2.663833,1133.576782 
	C2.000000,1129.916626 2.000000,1125.833374 2.000000,1120.875000 
z"/>
<path fill="#B07444" opacity="1.000000" stroke="none"
	d="
M536.747314,502.770111 
	C576.428040,487.728546 614.210754,470.422516 650.958801,450.788574 
	C682.374634,434.003571 714.063721,417.730530 745.500244,400.983826 
	C781.370911,381.874969 817.797852,363.974823 855.614197,349.007843 
	C894.473328,333.628143 934.491760,322.420197 976.163940,318.597351 
	C1014.591431,315.072144 1052.579346,319.239349 1089.964600,328.790588 
	C1127.514160,338.383789 1163.768799,351.738525 1198.311523,369.116211 
	C1250.632446,395.437897 1302.363403,422.931793 1354.347900,449.922394 
	C1402.575317,474.962433 1452.150024,496.907532 1503.556152,514.603882 
	C1563.030151,535.077576 1622.707886,554.974243 1681.975464,576.027283 
	C1720.578735,589.739807 1757.799683,606.618164 1793.178223,627.657166 
	C1856.119141,665.086914 1896.293579,719.651550 1917.413818,789.002808 
	C1927.820435,823.175110 1933.243652,858.246887 1936.528564,893.804749 
	C1941.409668,946.643005 1940.248047,999.568970 1940.285522,1052.483032 
	C1940.322266,1104.466431 1939.859131,1156.449951 1939.711792,1208.433594 
	C1939.614502,1242.740479 1940.685791,1277.083496 1939.457886,1311.346680 
	C1937.465942,1366.932495 1932.041138,1422.159424 1914.087402,1475.353027 
	C1899.365845,1518.970947 1876.864990,1557.789062 1843.030518,1589.471924 
	C1820.015259,1611.023438 1793.726929,1627.906128 1765.806519,1642.317749 
	C1717.714478,1667.141479 1666.732666,1684.672119 1615.667480,1702.094604 
	C1562.134399,1720.359131 1508.638184,1738.781006 1455.557373,1758.307251 
	C1411.119873,1774.653931 1369.300537,1796.865479 1327.574097,1819.121582 
	C1300.262817,1833.688721 1272.695801,1847.778809 1245.452637,1862.470825 
	C1211.109741,1880.991699 1175.649658,1897.003174 1139.108521,1910.599854 
	C1105.311890,1923.175293 1070.564087,1931.924438 1034.619141,1935.755615 
	C994.068054,1940.077881 954.387512,1935.207520 915.103455,1925.252075 
	C872.939392,1914.566650 832.861023,1898.287354 794.225464,1878.687866 
	C745.553223,1853.996826 697.550781,1827.989136 649.124084,1802.809570 
	C603.588989,1779.133667 556.694946,1758.493896 508.188293,1741.667725 
	C444.687439,1719.640259 380.922150,1698.362061 317.608765,1675.812134 
	C279.629822,1662.285522 243.206345,1645.166016 208.793991,1623.825073 
	C156.182755,1591.198120 119.487442,1545.834961 97.568626,1488.150391 
	C85.439552,1456.230103 78.184692,1423.162842 73.851021,1389.402222 
	C69.485008,1355.389526 67.445969,1321.236206 67.548630,1286.922729 
	C67.612297,1265.636597 66.325699,1244.346436 66.398170,1223.060547 
	C66.611389,1160.443726 67.291367,1097.828491 67.569359,1035.211670 
	C67.628349,1021.924927 66.261475,1008.627991 66.423363,995.346375 
	C66.715248,971.398621 67.018387,947.419128 68.489563,923.525085 
	C70.818748,885.695618 74.674896,848.008911 83.848518,811.074219 
	C95.983551,762.216248 116.164062,717.336853 150.105759,679.582581 
	C171.214722,656.102539 196.628555,637.862427 223.948059,622.209900 
	C261.358887,600.775635 301.094391,584.527954 341.645935,570.315796 
	C390.333923,553.251892 439.328430,537.064209 488.137238,520.342590 
	C504.190521,514.842834 520.078979,508.862152 536.747314,502.770111 
M735.943298,432.803040 
	C723.607483,439.388031 711.371643,446.169128 698.916382,452.519775 
	C666.587463,469.003540 634.464722,485.934296 601.702393,501.514740 
	C555.640015,523.420227 507.219299,539.388367 459.033325,555.845825 
	C421.231995,568.756470 383.198853,581.009216 345.577667,594.421082 
	C301.322601,610.197876 257.923309,628.028809 218.208588,653.669189 
	C194.855164,668.746643 173.765320,686.273132 156.741302,708.526306 
	C124.495003,750.677307 108.698044,799.263306 100.126747,850.797729 
	C92.462463,896.878784 91.226654,943.417542 90.505821,989.953186 
	C90.140091,1013.563965 91.672638,1037.198975 91.604919,1060.820801 
	C91.477959,1105.109619 90.500198,1149.396606 90.465469,1193.684937 
	C90.436493,1230.640991 91.453987,1267.596680 91.625206,1304.554321 
	C91.762611,1334.215088 94.279457,1363.662842 98.248779,1393.014160 
	C102.545258,1424.784912 110.113747,1455.711426 121.952057,1485.574219 
	C141.353165,1534.514160 173.053726,1573.303955 217.501053,1601.512207 
	C254.802490,1625.185547 295.054657,1642.812378 336.534393,1657.535034 
	C384.839691,1674.680664 433.375702,1691.191895 481.979675,1707.476685 
	C542.043945,1727.601562 600.768372,1750.825562 656.800842,1780.556030 
	C692.386292,1799.437378 728.037598,1818.194580 763.627441,1837.067627 
	C806.923889,1860.027100 851.086609,1881.088257 897.970581,1895.716309 
	C938.189514,1908.264771 979.193359,1916.560303 1021.663818,1912.198608 
	C1039.810791,1910.334961 1058.073120,1908.265015 1075.844604,1904.315918 
	C1135.218750,1891.122314 1189.477051,1864.785889 1243.041138,1837.019653 
	C1279.090210,1818.332642 1314.754395,1798.904541 1350.644165,1779.908569 
	C1407.900024,1749.603882 1468.075684,1726.319458 1529.356934,1705.684326 
	C1572.262939,1691.236816 1615.268799,1677.062988 1657.943970,1661.958740 
	C1700.330444,1646.956543 1741.990112,1630.182617 1780.551636,1606.552734 
	C1804.298706,1592.000854 1825.958984,1575.000732 1843.989014,1553.730469 
	C1868.067139,1525.325317 1883.700073,1492.422241 1894.308838,1456.950562 
	C1910.577515,1402.554077 1914.241455,1346.471191 1915.387329,1290.249146 
	C1916.214600,1249.653809 1914.446777,1209.011963 1914.402832,1168.390259 
	C1914.367554,1135.767822 1915.569702,1103.143921 1915.526001,1070.521606 
	C1915.465332,1025.233765 1915.370483,979.929199 1914.076660,934.666504 
	C1913.356201,909.467041 1911.044678,884.228149 1907.886475,859.204407 
	C1903.707153,826.090637 1895.355591,793.885742 1882.118164,763.094055 
	C1863.072021,718.790771 1833.818726,683.081665 1793.437134,656.411804 
	C1755.652222,631.456726 1714.614868,613.254395 1672.227539,598.147827 
	C1618.306885,578.930908 1564.066650,560.591125 1509.775757,542.436707 
	C1446.767578,521.367249 1386.478394,494.238617 1327.787842,463.259308 
	C1281.286011,438.713684 1234.810669,414.064911 1187.623657,390.886841 
	C1146.616943,370.744598 1103.803955,355.120239 1058.536499,346.996399 
	C1020.797607,340.223633 983.187378,340.267181 945.523926,347.478668 
	C911.021545,354.084930 877.647461,364.556732 845.830811,379.146454 
	C809.238831,395.925903 773.425720,414.404053 735.943298,432.803040 
z"/>
<path fill="#F0DAB7" opacity="1.000000" stroke="none" 
	d="
M736.608826,432.473694 
	C773.425720,414.404053 809.238831,395.925903 845.830811,379.146454 
	C877.647461,364.556732 911.021545,354.084930 945.523926,347.478668 
	C983.187378,340.267181 1020.797607,340.223633 1058.536499,346.996399 
	C1103.803955,355.120239 1146.616943,370.744598 1187.623657,390.886841 
	C1234.810669,414.064911 1281.286011,438.713684 1327.787842,463.259308 
	C1386.478394,494.238617 1446.767578,521.367249 1509.775757,542.436707 
	C1564.066650,560.591125 1618.306885,578.930908 1672.227539,598.147827 
	C1714.614868,613.254395 1755.652222,631.456726 1793.437134,656.411804 
	C1833.818726,683.081665 1863.072021,718.790771 1882.118164,763.094055 
	C1895.355591,793.885742 1903.707153,826.090637 1907.886475,859.204407 
	C1911.044678,884.228149 1913.356201,909.467041 1914.076660,934.666504 
	C1915.370483,979.929199 1915.465332,1025.233765 1915.526001,1070.521606 
	C1915.569702,1103.143921 1914.367554,1135.767822 1914.402832,1168.390259 
	C1914.446777,1209.011963 1916.214600,1249.653809 1915.387329,1290.249146 
	C1914.241455,1346.471191 1910.577515,1402.554077 1894.308838,1456.950562 
	C1883.700073,1492.422241 1868.067139,1525.325317 1843.989014,1553.730469 
	C1825.958984,1575.000732 1804.298706,1592.000854 1780.551636,1606.552734 
	C1741.990112,1630.182617 1700.330444,1646.956543 1657.943970,1661.958740 
	C1615.268799,1677.062988 1572.262939,1691.236816 1529.356934,1705.684326 
	C1468.075684,1726.319458 1407.900024,1749.603882 1350.644165,1779.908569 
	C1314.754395,1798.904541 1279.090210,1818.332642 1243.041138,1837.019653 
	C1189.477051,1864.785889 1135.218750,1891.122314 1075.844604,1904.315918 
	C1058.073120,1908.265015 1039.810791,1910.334961 1021.663818,1912.198608 
	C979.193359,1916.560303 938.189514,1908.264771 897.970581,1895.716309 
	C851.086609,1881.088257 806.923889,1860.027100 763.627441,1837.067627 
	C728.037598,1818.194580 692.386292,1799.437378 656.800842,1780.556030 
	C600.768372,1750.825562 542.043945,1727.601562 481.979675,1707.476685 
	C433.375702,1691.191895 384.839691,1674.680664 336.534393,1657.535034 
	C295.054657,1642.812378 254.802490,1625.185547 217.501053,1601.512207 
	C173.053726,1573.303955 141.353165,1534.514160 121.952057,1485.574219 
	C110.113747,1455.711426 102.545258,1424.784912 98.248779,1393.014160 
	C94.279457,1363.662842 91.762611,1334.215088 91.625206,1304.554321 
	C91.453987,1267.596680 90.436493,1230.640991 90.465469,1193.684937 
	C90.500198,1149.396606 91.477959,1105.109619 91.604919,1060.820801 
	C91.672638,1037.198975 90.140091,1013.563965 90.505821,989.953186 
	C91.226654,943.417542 92.462463,896.878784 100.126747,850.797729 
	C108.698044,799.263306 124.495003,750.677307 156.741302,708.526306 
	C173.765320,686.273132 194.855164,668.746643 218.208588,653.669189 
	C257.923309,628.028809 301.322601,610.197876 345.577667,594.421082 
	C383.198853,581.009216 421.231995,568.756470 459.033325,555.845825 
	C507.219299,539.388367 555.640015,523.420227 601.702393,501.514740 
	C634.464722,485.934296 666.587463,469.003540 698.916382,452.519775 
	C711.371643,446.169128 723.607483,439.388031 736.608826,432.473694 
M703.190430,1142.296021 
	C764.151917,1142.295532 825.113342,1142.315430 886.074768,1142.252930 
	C890.581787,1142.248291 895.088135,1141.648804 900.626404,1141.251953 
	C900.626404,1132.579224 900.758728,1124.973389 900.529846,1117.378540 
	C900.475220,1115.565186 899.731384,1112.974854 898.417053,1112.141602 
	C893.827209,1109.231812 894.653625,1104.862671 894.256409,1100.616333 
	C893.720276,1094.884644 892.766296,1089.191895 891.826111,1082.263306 
	C896.609070,1077.889038 897.148743,1070.675293 896.946228,1063.182983 
	C896.528320,1047.720093 889.780579,1035.566406 877.248108,1026.867065 
	C870.715759,1022.332642 863.562195,1018.660156 856.535522,1014.884155 
	C852.689514,1012.817444 851.778076,1009.782227 851.911621,1005.798401 
	C852.034546,1002.131470 854.170349,1000.546204 857.232971,999.475586 
	C860.061035,998.487000 862.750671,996.968140 865.644043,996.325623 
	C875.737061,994.084290 879.004211,987.411194 879.996826,977.691040 
	C884.015930,938.331665 883.318115,899.184875 875.879211,860.285767 
	C869.654846,827.737854 860.377991,796.169250 843.650208,767.256592 
	C834.874939,752.089233 823.773254,739.021240 808.919373,729.246582 
	C804.046631,726.040100 799.844360,721.662476 795.797852,717.383179 
	C785.980408,707.000854 776.611938,696.190125 766.679810,685.922180 
	C763.362000,682.492188 759.240173,679.416931 752.635864,679.210022 
	C753.405762,683.753174 754.088806,687.577759 754.696411,691.414246 
	C755.841797,698.645752 756.945068,705.883911 758.063110,713.119751 
	C758.819641,718.015686 757.373962,721.267456 752.212830,723.013611 
	C739.507446,727.312012 729.843567,735.674011 721.578003,746.137146 
	C706.546387,765.165100 689.161011,781.466187 666.445679,791.192749 
	C659.175354,794.305969 656.079590,800.216309 655.992432,807.889709 
	C655.866394,818.991699 659.757141,828.802246 666.141174,837.629761 
	C673.543884,847.865967 678.961487,849.434875 691.091919,845.432251 
	C693.937683,844.493225 696.722839,843.371826 699.561218,842.408997 
	C708.816895,839.269165 718.091003,838.044128 728.031128,839.296997 
	C735.473145,840.235046 743.229065,838.907654 750.823059,838.307922 
	C754.035034,838.054382 757.190063,837.080261 759.997742,836.509521 
	C764.672058,841.456787 764.496033,845.520142 760.850037,850.357361 
	C755.045288,858.058655 749.450623,865.978821 744.471619,874.231445 
	C724.006653,908.151855 711.589233,944.716492 709.078918,984.446045 
	C708.431030,994.699219 708.615417,995.193909 718.708984,998.647339 
	C723.118591,1000.156067 727.695496,1001.217529 732.014465,1002.938599 
	C737.208557,1005.008423 737.883545,1010.451477 733.414124,1013.832336 
	C731.319397,1015.416748 728.666870,1016.239746 726.397827,1017.622253 
	C720.439087,1021.253235 714.265015,1024.619263 708.703186,1028.792480 
	C700.175720,1035.190918 694.234924,1043.708130 692.520752,1054.369751 
	C690.826294,1064.909546 689.825134,1075.612671 697.114624,1083.386841 
	C695.846619,1087.995972 694.434387,1091.320068 694.094299,1094.750610 
	C693.431152,1101.438232 695.739990,1108.867798 688.491455,1113.604492 
	C688.077332,1113.875244 687.970276,1114.831543 687.960388,1115.472412 
	C687.828491,1124.003174 686.520996,1132.610596 689.237854,1141.707520 
	C693.407227,1141.911377 697.327759,1142.103149 703.190430,1142.296021 
M1237.000000,1142.299316 
	C1274.547974,1142.299316 1312.095947,1142.299316 1351.057617,1142.299316 
	C1351.083008,1132.663086 1351.208740,1124.437744 1351.029419,1116.219116 
	C1350.997681,1114.762817 1350.067871,1112.607788 1348.916504,1112.018433 
	C1343.911255,1109.456665 1344.916992,1104.940186 1344.490967,1100.715088 
	C1343.912231,1094.974243 1342.961914,1089.270874 1342.216064,1083.876099 
	C1343.890259,1078.760010 1346.703735,1073.609741 1347.102539,1068.278809 
	C1348.170776,1053.997070 1344.056152,1041.134644 1332.953491,1031.434204 
	C1328.221802,1027.300049 1323.048096,1023.458801 1317.531738,1020.496399 
	C1312.215576,1017.641479 1309.477295,1014.350891 1310.006470,1008.071594 
	C1310.227905,1005.442505 1309.291382,1000.980286 1307.606812,1000.235962 
	C1301.346069,997.469482 1302.418213,992.307556 1302.194702,987.513306 
	C1300.254761,945.922546 1298.336792,904.330627 1296.510620,862.734680 
	C1295.855713,847.816772 1295.469482,832.887146 1295.031860,820.052429 
	C1299.629761,815.397705 1302.857910,812.129578 1306.086060,808.861511 
	C1305.794434,808.527893 1305.502808,808.194275 1305.211060,807.860657 
	C1308.394287,807.053406 1311.577515,806.246216 1314.604370,805.478638 
	C1317.004883,795.667725 1316.773804,737.893860 1313.962158,728.590149 
	C1307.505249,728.590149 1300.595337,728.649109 1293.686890,728.570618 
	C1288.583984,728.512573 1286.594482,731.105286 1286.543701,735.989258 
	C1286.506836,739.535400 1285.976929,743.076538 1285.635498,746.978027 
	C1279.668945,746.978027 1274.622192,746.978027 1269.273804,746.978027 
	C1268.546143,740.629028 1267.920532,735.170959 1267.182007,728.726990 
	C1252.799683,728.726990 1239.214233,728.652588 1225.630737,728.776306 
	C1221.963013,728.809692 1220.584106,731.310242 1220.373413,734.779053 
	C1220.121216,738.931396 1219.619995,743.068726 1219.240234,747.068298 
	C1213.170288,747.068298 1208.347290,747.068298 1203.136108,747.068298 
	C1202.411499,740.820251 1201.777588,735.354858 1200.984497,728.516785 
	C1194.511353,728.516785 1188.598511,728.424194 1182.689697,728.537903 
	C1173.160278,728.721130 1172.542114,729.239746 1172.484863,738.897644 
	C1172.370239,758.219421 1172.411011,777.542480 1172.501099,796.864502 
	C1172.514404,799.729126 1173.145264,802.590820 1173.589722,806.277710 
	C1185.004395,803.413574 1185.262939,816.534546 1193.870483,818.014709 
	C1193.870483,821.354675 1193.982056,824.330200 1193.853638,827.295410 
	C1192.340088,862.237000 1190.825073,897.178589 1189.236816,932.116821 
	C1188.359497,951.415649 1187.416870,970.712341 1186.308838,989.998840 
	C1186.146851,992.818542 1185.668701,997.314148 1184.014893,998.045776 
	C1178.372070,1000.542175 1178.137939,1004.905151 1178.550049,1009.602661 
	C1178.994507,1014.667236 1176.728760,1017.361023 1172.529297,1019.849182 
	C1166.550537,1023.391541 1160.552246,1027.228516 1155.498657,1031.943237 
	C1140.390503,1046.038208 1137.559082,1066.576172 1147.179321,1083.705444 
	C1146.052979,1088.067139 1144.684570,1091.732788 1144.225830,1095.508911 
	C1143.460327,1101.812012 1146.074951,1109.001465 1138.774902,1113.355713 
	C1138.165283,1113.719238 1138.003296,1115.191406 1137.996460,1116.151123 
	C1137.937622,1124.358398 1137.962769,1132.566040 1137.962769,1140.335815 
	C1140.260498,1141.239746 1141.162231,1141.901489 1142.067749,1141.906372 
	C1173.045044,1142.076050 1204.022461,1142.183228 1237.000000,1142.299316 
M981.027466,905.537170 
	C985.940918,911.304016 990.854370,917.070801 995.774780,922.845764 
	C989.950256,927.715759 988.377625,931.119690 992.205078,934.208191 
	C996.752869,937.877869 996.298462,942.158020 996.368103,946.674316 
	C996.742188,970.911011 992.362976,994.433411 985.304077,1017.500732 
	C983.711121,1022.706299 983.229431,1028.837036 976.436707,1030.913696 
	C975.434082,1031.220215 974.555115,1033.667480 974.535950,1035.136108 
	C974.472229,1040.025024 971.126404,1041.754028 967.560791,1043.896362 
	C961.311584,1047.651123 954.860840,1051.354858 949.449036,1056.156006 
	C939.894470,1064.632080 937.022888,1076.203247 940.051575,1088.097168 
	C941.623474,1094.270142 942.713501,1099.704956 941.025269,1105.828613 
	C940.071350,1109.288330 941.092468,1113.801758 939.224365,1116.406006 
	C933.367615,1124.570679 936.671814,1132.726074 936.700134,1140.744019 
	C947.691467,1143.044067 1094.147827,1142.782104 1103.028076,1140.459351 
	C1103.028076,1133.845825 1105.337769,1125.687378 1102.407349,1120.474609 
	C1099.189331,1114.750122 1098.493652,1109.560547 1098.334351,1103.748291 
	C1098.239258,1100.277100 1095.489990,1097.413940 1097.653931,1093.277222 
	C1103.941528,1081.257690 1099.610229,1063.420044 1089.126343,1055.115479 
	C1083.685059,1050.805176 1077.419678,1047.550293 1071.701416,1043.567383 
	C1069.372803,1041.945435 1066.432251,1039.995972 1065.676270,1037.595337 
	C1064.434570,1033.651855 1063.769897,1030.227417 1059.182251,1028.537720 
	C1057.574585,1027.945679 1056.639526,1024.803589 1055.913818,1022.651794 
	C1047.432007,997.502380 1042.978516,971.655762 1043.029541,945.096069 
	C1043.035034,942.213989 1043.841797,939.215454 1044.858032,936.487427 
	C1045.817871,933.911011 1048.948242,931.366577 1048.569702,929.269104 
	C1048.119263,926.773254 1044.945312,924.768921 1042.850586,922.439575 
	C1045.998779,919.596436 1049.407349,916.920166 1052.343384,913.799377 
	C1068.109863,897.041321 1068.334106,870.717468 1052.985474,853.708435 
	C1037.233276,836.252075 1010.807129,833.901306 992.354553,848.315125 
	C975.408691,861.551941 970.886597,882.478027 981.027466,905.537170 
M473.941589,1554.900391 
	C473.937256,1543.579834 473.770264,1532.256226 473.974060,1520.939453 
	C474.179596,1509.526855 472.785767,1498.019897 474.758209,1485.302002 
	C479.321350,1487.226685 482.627686,1488.534058 485.862122,1490.000122 
	C504.020050,1498.229980 522.996765,1502.441772 542.991333,1502.294189 
	C581.769470,1502.007935 602.536865,1485.299683 609.883911,1447.444092 
	C615.528198,1418.362305 615.485107,1389.088379 609.430298,1360.120728 
	C607.283020,1349.847900 603.205505,1339.732300 598.492920,1330.302612 
	C592.236816,1317.784424 581.333008,1309.754150 567.647400,1306.950317 
	C558.965149,1305.171631 549.764160,1304.369385 540.952637,1305.078125 
	C517.699768,1306.948975 497.424896,1316.593384 479.376587,1331.196533 
	C477.006561,1333.114258 475.234344,1336.669189 470.813904,1335.403320 
	C469.800385,1327.165283 468.793793,1318.983154 467.757874,1310.562988 
	C458.672943,1308.412842 450.336243,1308.425781 441.307739,1310.519775 
	C441.100464,1315.113525 440.769531,1319.048096 440.768036,1322.982788 
	C440.737732,1402.559448 440.741791,1482.135986 440.758728,1561.712646 
	C440.759369,1564.704102 440.463928,1567.832642 441.241272,1570.638306 
	C441.752777,1572.484619 443.865509,1575.149780 445.396454,1575.243774 
	C454.549255,1575.805420 463.802094,1576.648071 473.941498,1574.466064 
	C473.941498,1568.057007 473.941498,1562.456055 473.941589,1554.900391 
M1426.581543,1470.385376 
	C1419.607788,1469.866333 1412.633667,1469.350586 1405.660278,1468.826904 
	C1402.526245,1468.591431 1399.000854,1468.590332 1398.649902,1472.514160 
	C1397.980469,1479.997314 1396.005981,1487.521118 1398.009277,1495.809937 
	C1406.407593,1496.897095 1414.623291,1497.969849 1422.841797,1499.022705 
	C1446.681030,1502.076782 1470.646851,1503.685669 1494.610718,1502.016113 
	C1505.774780,1501.238159 1517.085083,1498.946655 1527.754395,1495.540894 
	C1543.117188,1490.636963 1554.225830,1479.955566 1559.616577,1464.596436 
	C1568.874390,1438.218872 1568.637817,1411.635254 1559.071045,1385.325562 
	C1554.331177,1372.290161 1544.945068,1363.805176 1531.780396,1359.466675 
	C1528.742676,1358.465576 1525.747925,1357.334351 1522.002563,1356.003296 
	C1523.557495,1354.765137 1524.181763,1353.935791 1524.990112,1353.673096 
	C1543.679565,1347.596069 1552.577026,1333.313965 1555.723267,1315.221436 
	C1557.648438,1304.150146 1558.395386,1292.710449 1558.187012,1281.463623 
	C1557.623047,1251.031372 1543.650513,1234.775513 1513.984863,1228.651978 
	C1512.681396,1228.382690 1511.364380,1228.165283 1510.045288,1227.985840 
	C1476.041016,1223.358765 1442.264160,1225.736572 1408.610474,1231.398926 
	C1406.441162,1231.763916 1404.405640,1232.924316 1402.261597,1233.732178 
	C1401.697266,1242.195923 1401.987915,1249.986328 1404.910034,1257.368774 
	C1412.606567,1257.368774 1419.545898,1257.481201 1426.480469,1257.347290 
	C1445.451782,1256.981079 1464.421875,1256.194702 1483.390747,1256.243164 
	C1490.633911,1256.261597 1497.993774,1257.578125 1505.084717,1259.229370 
	C1515.387573,1261.628540 1522.424805,1268.305786 1523.912842,1278.901855 
	C1525.244385,1288.382935 1526.128296,1298.168945 1525.321045,1307.659790 
	C1523.466187,1329.468018 1512.276978,1340.420898 1490.508423,1343.339600 
	C1486.563843,1343.868408 1482.535767,1343.904175 1478.544678,1343.931641 
	C1466.220459,1344.016357 1453.894775,1343.925537 1441.571045,1344.040527 
	C1438.038330,1344.073486 1434.509888,1344.572876 1430.748779,1344.877075 
	C1430.748779,1353.679321 1430.748779,1361.425659 1430.748779,1369.862671 
	C1435.237305,1370.144043 1438.829590,1370.536377 1442.424561,1370.563843 
	C1454.415527,1370.655518 1466.423828,1370.239136 1478.393677,1370.754517 
	C1486.996460,1371.125000 1495.736206,1371.884155 1504.081421,1373.870605 
	C1518.269043,1377.247559 1527.747559,1386.420776 1529.968750,1401.071655 
	C1531.501709,1411.182007 1532.330811,1421.674072 1531.450562,1431.819946 
	C1529.448975,1454.893188 1518.221191,1466.527222 1495.202271,1470.221069 
	C1473.017700,1473.781250 1450.699707,1472.149658 1426.581543,1470.385376 
M890.453613,1306.170532 
	C861.300598,1302.599609 794.167053,1307.672974 779.428711,1314.726562 
	C779.845337,1322.021118 779.054749,1329.648682 783.067505,1336.581787 
	C784.873474,1336.686523 786.191223,1336.904785 787.488220,1336.816895 
	C806.100769,1335.555908 824.693970,1333.802124 843.326721,1333.121338 
	C855.575867,1332.673828 867.920227,1333.298462 880.146362,1334.334595 
	C887.332947,1334.943604 893.610352,1338.657959 896.821472,1345.618530 
	C902.031006,1356.911255 901.380005,1368.622681 899.441711,1381.069336 
	C894.587219,1381.303467 890.658203,1381.645630 886.728333,1381.656982 
	C865.402710,1381.718994 844.074036,1381.503540 822.752869,1381.819946 
	C815.818909,1381.922852 808.705750,1382.573364 802.018799,1384.303833 
	C782.944214,1389.239868 771.329834,1403.487427 770.260620,1423.171997 
	C769.683411,1433.799561 769.630249,1444.525269 770.347412,1455.138672 
	C771.789551,1476.480225 784.407959,1492.405884 804.999023,1497.911743 
	C813.851135,1500.278931 823.433167,1501.206055 832.604919,1500.836304 
	C856.127441,1499.888428 876.155518,1489.563965 894.392578,1475.329346 
	C897.145630,1473.180420 899.915771,1471.053345 903.950989,1467.931152 
	C905.736084,1478.714111 907.228882,1487.731689 908.744995,1496.889893 
	C917.557983,1497.964600 925.327209,1498.981934 933.367188,1496.195312 
	C933.630615,1493.223999 934.063843,1490.606079 934.064819,1487.987793 
	C934.081299,1445.336548 934.196716,1402.684082 933.868225,1360.035156 
	C933.812561,1352.807617 932.464722,1345.411377 930.544678,1338.413940 
	C926.566345,1323.914673 917.039856,1314.190430 902.719666,1309.380249 
	C899.253784,1308.216064 895.666382,1307.414062 890.453613,1306.170532 
M1292.999268,1230.278442 
	C1279.671997,1230.229492 1266.341064,1229.976440 1253.019287,1230.224487 
	C1247.065918,1230.335449 1240.968628,1230.799683 1235.217896,1232.232422 
	C1216.257202,1236.955688 1204.462036,1248.783203 1201.385498,1268.470093 
	C1200.770874,1272.402588 1200.388306,1276.416016 1200.384521,1280.392578 
	C1200.319458,1349.027954 1200.315308,1417.663330 1200.368286,1486.298706 
	C1200.370972,1489.811157 1201.006348,1493.323242 1201.364746,1497.016602 
	C1212.593506,1497.016602 1222.727783,1497.016602 1233.674194,1497.016602 
	C1233.959961,1491.985107 1234.400879,1487.751099 1234.408936,1483.516113 
	C1234.468872,1452.197144 1234.438965,1420.878174 1234.449463,1389.559082 
	C1234.450439,1386.561401 1234.524658,1383.563354 1234.584839,1380.565918 
	C1234.665283,1376.567383 1236.597778,1374.379639 1240.714111,1374.332642 
	C1243.378784,1374.302246 1246.043335,1374.209961 1248.707886,1374.208984 
	C1277.028320,1374.197510 1305.348877,1374.237183 1333.669067,1374.151733 
	C1337.500122,1374.140137 1341.329346,1373.518311 1345.416016,1373.156372 
	C1345.416016,1364.137695 1345.416016,1356.279175 1345.416016,1347.536133 
	C1340.594116,1347.174438 1336.374756,1346.596191 1332.153931,1346.583862 
	C1303.833740,1346.500610 1275.513062,1346.577393 1247.192871,1346.488281 
	C1243.359619,1346.476318 1239.528320,1345.826416 1236.303223,1345.527954 
	C1235.521118,1343.806763 1235.014648,1343.209961 1235.011719,1342.610596 
	C1234.908936,1321.971558 1234.171631,1301.304321 1235.024170,1280.703003 
	C1235.624268,1266.201782 1242.934692,1260.399170 1257.761719,1259.604126 
	C1260.421265,1259.461548 1263.090942,1259.472900 1265.755859,1259.471802 
	C1292.410400,1259.460693 1319.064819,1259.471558 1345.719360,1259.455933 
	C1361.476807,1259.446655 1361.476685,1259.430298 1362.017944,1243.436768 
	C1362.367432,1233.108887 1362.015137,1232.459473 1351.936401,1232.061035 
	C1332.963623,1231.310791 1313.978638,1230.866089 1292.999268,1230.278442 
M1041.437500,1411.510376 
	C1032.287109,1385.781616 1023.138855,1360.052002 1013.984924,1334.324463 
	C1011.752319,1328.049561 1009.530212,1321.770508 1007.245605,1315.514526 
	C1006.199524,1312.649902 1004.993896,1309.763550 1001.302307,1309.633179 
	C991.742065,1309.295288 982.157654,1308.655029 971.387451,1310.417725 
	C972.847351,1315.439453 973.747070,1319.570190 975.229980,1323.479614 
	C995.308838,1376.412842 1015.639893,1429.251343 1035.447754,1482.285522 
	C1038.936035,1491.625000 1043.497681,1498.161621 1054.094971,1498.728882 
	C1054.515625,1498.751587 1054.888428,1499.662842 1055.814819,1500.828613 
	C1046.620483,1528.162476 1028.385376,1546.909180 1000.620911,1555.255127 
	C999.691772,1563.569702 1000.457092,1570.266113 1003.720703,1576.919678 
	C1005.660400,1576.919678 1007.309875,1577.065674 1008.926575,1576.897461 
	C1030.174561,1574.687500 1047.519653,1565.079102 1061.406006,1549.018311 
	C1071.553833,1537.281250 1078.776245,1523.812134 1084.261230,1509.403931 
	C1108.076172,1446.846436 1131.822144,1384.262695 1155.526978,1321.663452 
	C1156.772461,1318.374146 1157.413086,1314.855713 1158.746582,1309.922729 
	C1149.803345,1309.699585 1142.269043,1309.349609 1134.735474,1309.363281 
	C1124.706665,1309.381714 1124.593140,1309.463135 1121.244751,1318.944458 
	C1112.373291,1344.065063 1103.607910,1369.223145 1094.803223,1394.367310 
	C1086.769043,1417.311401 1078.800049,1440.278809 1070.640015,1463.178101 
	C1069.419800,1466.602295 1069.428467,1471.460571 1062.707031,1471.801636 
	C1055.812256,1452.275391 1048.877197,1432.635010 1041.437500,1411.510376 
M665.921265,1381.000000 
	C665.921265,1390.985718 665.908325,1400.971558 665.924316,1410.957275 
	C665.948914,1426.268433 665.639465,1441.590332 666.108032,1456.888184 
	C666.922119,1483.471436 682.639954,1499.607544 709.166138,1501.055908 
	C716.419067,1501.451782 723.830505,1500.768677 731.043396,1499.717285 
	C749.846863,1496.976440 746.382874,1495.414551 744.296875,1482.539429 
	C744.084045,1481.225708 743.875549,1479.904175 743.791077,1478.578247 
	C743.455505,1473.309937 740.735046,1470.922241 735.409485,1470.939575 
	C729.760254,1470.957886 724.061035,1470.942017 718.469971,1470.246826 
	C707.422485,1468.873169 701.034058,1462.807007 699.106140,1451.853271 
	C698.306213,1447.308594 698.330750,1442.581909 698.334717,1437.938110 
	C698.390625,1372.365356 698.526550,1306.792480 698.568359,1241.219727 
	C698.571228,1236.729126 697.980469,1232.238159 697.632996,1227.279419 
	C686.667419,1226.392456 676.894592,1225.587769 665.921143,1227.939575 
	C665.921143,1278.621948 665.921143,1328.810913 665.921265,1381.000000 
z"/>
<path fill="#F89840" opacity="1.000000" stroke="none" 
	d="
M702.219360,1142.295410 
	C697.327759,1142.103149 693.407227,1141.911377 689.237854,1141.707520 
	C686.520996,1132.610596 687.828491,1124.003174 687.960388,1115.472412 
	C687.970276,1114.831543 688.077332,1113.875244 688.491455,1113.604492 
	C695.739990,1108.867798 693.431152,1101.438232 694.094299,1094.750610 
	C694.434387,1091.320068 695.846619,1087.995972 697.114624,1083.386841 
	C689.825134,1075.612671 690.826294,1064.909546 692.520752,1054.369751 
	C694.234924,1043.708130 700.175720,1035.190918 708.703186,1028.792480 
	C714.265015,1024.619263 720.439087,1021.253235 726.397827,1017.622253 
	C728.666870,1016.239746 731.319397,1015.416748 733.414124,1013.832336 
	C737.883545,1010.451477 737.208557,1005.008423 732.014465,1002.938599 
	C727.695496,1001.217529 723.118591,1000.156067 718.708984,998.647339 
	C708.615417,995.193909 708.431030,994.699219 709.078918,984.446045 
	C711.589233,944.716492 724.006653,908.151855 744.471619,874.231445 
	C749.450623,865.978821 755.045288,858.058655 760.850037,850.357361 
	C764.496033,845.520142 764.672058,841.456787 759.997742,836.509521 
	C757.190063,837.080261 754.035034,838.054382 750.823059,838.307922 
	C743.229065,838.907654 735.473145,840.235046 728.031128,839.296997 
	C718.091003,838.044128 708.816895,839.269165 699.561218,842.408997 
	C696.722839,843.371826 693.937683,844.493225 691.091919,845.432251 
	C678.961487,849.434875 673.543884,847.865967 666.141174,837.629761 
	C659.757141,828.802246 655.866394,818.991699 655.992432,807.889709 
	C656.079590,800.216309 659.175354,794.305969 666.445679,791.192749 
	C689.161011,781.466187 706.546387,765.165100 721.578003,746.137146 
	C729.843567,735.674011 739.507446,727.312012 752.212830,723.013611 
	C757.373962,721.267456 758.819641,718.015686 758.063110,713.119751 
	C756.945068,705.883911 755.841797,698.645752 754.696411,691.414246 
	C754.088806,687.577759 753.405762,683.753174 752.635864,679.210022 
	C759.240173,679.416931 763.362000,682.492188 766.679810,685.922180 
	C776.611938,696.190125 785.980408,707.000854 795.797852,717.383179 
	C799.844360,721.662476 804.046631,726.040100 808.919373,729.246582 
	C823.773254,739.021240 834.874939,752.089233 843.650208,767.256592 
	C860.377991,796.169250 869.654846,827.737854 875.879211,860.285767 
	C883.318115,899.184875 884.015930,938.331665 879.996826,977.691040 
	C879.004211,987.411194 875.737061,994.084290 865.644043,996.325623 
	C862.750671,996.968140 860.061035,998.487000 857.232971,999.475586 
	C854.170349,1000.546204 852.034546,1002.131470 851.911621,1005.798401 
	C851.778076,1009.782227 852.689514,1012.817444 856.535522,1014.884155 
	C863.562195,1018.660156 870.715759,1022.332642 877.248108,1026.867065 
	C889.780579,1035.566406 896.528320,1047.720093 896.946228,1063.182983 
	C897.148743,1070.675293 896.609070,1077.889038 891.826111,1082.263306 
	C892.766296,1089.191895 893.720276,1094.884644 894.256409,1100.616333 
	C894.653625,1104.862671 893.827209,1109.231812 898.417053,1112.141602 
	C899.731384,1112.974854 900.475220,1115.565186 900.529846,1117.378540 
	C900.758728,1124.973389 900.626404,1132.579224 900.626404,1141.251953 
	C895.088135,1141.648804 890.581787,1142.248291 886.074768,1142.252930 
	C825.113342,1142.315430 764.151917,1142.295532 702.219360,1142.295410 
z"/>
<path fill="#F89840" opacity="1.000000" stroke="none" 
	d="
M1236.000000,1142.299438 
	C1204.022461,1142.183228 1173.045044,1142.076050 1142.067749,1141.906372 
	C1141.162231,1141.901489 1140.260498,1141.239746 1137.962769,1140.335815 
	C1137.962769,1132.566040 1137.937622,1124.358398 1137.996460,1116.151123 
	C1138.003296,1115.191406 1138.165283,1113.719238 1138.774902,1113.355713 
	C1146.074951,1109.001465 1143.460327,1101.812012 1144.225830,1095.508911 
	C1144.684570,1091.732788 1146.052979,1088.067139 1147.179321,1083.705444 
	C1137.559082,1066.576172 1140.390503,1046.038208 1155.498657,1031.943237 
	C1160.552246,1027.228516 1166.550537,1023.391541 1172.529297,1019.849182 
	C1176.728760,1017.361023 1178.994507,1014.667236 1178.550049,1009.602661 
	C1178.137939,1004.905151 1178.372070,1000.542175 1184.014893,998.045776 
	C1185.668701,997.314148 1186.146851,992.818542 1186.308838,989.998840 
	C1187.416870,970.712341 1188.359497,951.415649 1189.236816,932.116821 
	C1190.825073,897.178589 1192.340088,862.237000 1193.853638,827.295410 
	C1193.982056,824.330200 1193.870483,821.354675 1193.870483,818.014709 
	C1185.262939,816.534546 1185.004395,803.413574 1173.589722,806.277710 
	C1173.145264,802.590820 1172.514404,799.729126 1172.501099,796.864502 
	C1172.411011,777.542480 1172.370239,758.219421 1172.484863,738.897644 
	C1172.542114,729.239746 1173.160278,728.721130 1182.689697,728.537903 
	C1188.598511,728.424194 1194.511353,728.516785 1200.984497,728.516785 
	C1201.777588,735.354858 1202.411499,740.820251 1203.136108,747.068298 
	C1208.347290,747.068298 1213.170288,747.068298 1219.240234,747.068298 
	C1219.619995,743.068726 1220.121216,738.931396 1220.373413,734.779053 
	C1220.584106,731.310242 1221.963013,728.809692 1225.630737,728.776306 
	C1239.214233,728.652588 1252.799683,728.726990 1267.182007,728.726990 
	C1267.920532,735.170959 1268.546143,740.629028 1269.273804,746.978027 
	C1274.622192,746.978027 1279.668945,746.978027 1285.635498,746.978027 
	C1285.976929,743.076538 1286.506836,739.535400 1286.543701,735.989258 
	C1286.594482,731.105286 1288.583984,728.512573 1293.686890,728.570618 
	C1300.595337,728.649109 1307.505249,728.590149 1313.962158,728.590149 
	C1316.773804,737.893860 1317.004883,795.667725 1314.604370,805.478638 
	C1311.577515,806.246216 1308.394287,807.053406 1305.211060,807.860657 
	C1305.502808,808.194275 1305.794434,808.527893 1306.086060,808.861511 
	C1302.857910,812.129578 1299.629761,815.397705 1295.031860,820.052429 
	C1295.469482,832.887146 1295.855713,847.816772 1296.510620,862.734680 
	C1298.336792,904.330627 1300.254761,945.922546 1302.194702,987.513306 
	C1302.418213,992.307556 1301.346069,997.469482 1307.606812,1000.235962 
	C1309.291382,1000.980286 1310.227905,1005.442505 1310.006470,1008.071594 
	C1309.477295,1014.350891 1312.215576,1017.641479 1317.531738,1020.496399 
	C1323.048096,1023.458801 1328.221802,1027.300049 1332.953491,1031.434204 
	C1344.056152,1041.134644 1348.170776,1053.997070 1347.102539,1068.278809 
	C1346.703735,1073.609741 1343.890259,1078.760010 1342.216064,1083.876099 
	C1342.961914,1089.270874 1343.912231,1094.974243 1344.490967,1100.715088 
	C1344.916992,1104.940186 1343.911255,1109.456665 1348.916504,1112.018433 
	C1350.067871,1112.607788 1350.997681,1114.762817 1351.029419,1116.219116 
	C1351.208740,1124.437744 1351.083008,1132.663086 1351.057617,1142.299316 
	C1312.095947,1142.299316 1274.547974,1142.299316 1236.000000,1142.299438 
z"/>
<path fill="#F89940" opacity="1.000000" stroke="none" 
	d="
M980.652832,904.867615 
	C970.886597,882.478027 975.408691,861.551941 992.354553,848.315125 
	C1010.807129,833.901306 1037.233276,836.252075 1052.985474,853.708435 
	C1068.334106,870.717468 1068.109863,897.041321 1052.343384,913.799377 
	C1049.407349,916.920166 1045.998779,919.596436 1042.850586,922.439575 
	C1044.945312,924.768921 1048.119263,926.773254 1048.569702,929.269104 
	C1048.948242,931.366577 1045.817871,933.911011 1044.858032,936.487427 
	C1043.841797,939.215454 1043.035034,942.213989 1043.029541,945.096069 
	C1042.978516,971.655762 1047.432007,997.502380 1055.913818,1022.651794 
	C1056.639526,1024.803589 1057.574585,1027.945679 1059.182251,1028.537720 
	C1063.769897,1030.227417 1064.434570,1033.651855 1065.676270,1037.595337 
	C1066.432251,1039.995972 1069.372803,1041.945435 1071.701416,1043.567383 
	C1077.419678,1047.550293 1083.685059,1050.805176 1089.126343,1055.115479 
	C1099.610229,1063.420044 1103.941528,1081.257690 1097.653931,1093.277222 
	C1095.489990,1097.413940 1098.239258,1100.277100 1098.334351,1103.748291 
	C1098.493652,1109.560547 1099.189331,1114.750122 1102.407349,1120.474609 
	C1105.337769,1125.687378 1103.028076,1133.845825 1103.028076,1140.459351 
	C1094.147827,1142.782104 947.691467,1143.044067 936.700134,1140.744019 
	C936.671814,1132.726074 933.367615,1124.570679 939.224365,1116.406006 
	C941.092468,1113.801758 940.071350,1109.288330 941.025269,1105.828613 
	C942.713501,1099.704956 941.623474,1094.270142 940.051575,1088.097168 
	C937.022888,1076.203247 939.894470,1064.632080 949.449036,1056.156006 
	C954.860840,1051.354858 961.311584,1047.651123 967.560791,1043.896362 
	C971.126404,1041.754028 974.472229,1040.025024 974.535950,1035.136108 
	C974.555115,1033.667480 975.434082,1031.220215 976.436707,1030.913696 
	C983.229431,1028.837036 983.711121,1022.706299 985.304077,1017.500732 
	C992.362976,994.433411 996.742188,970.911011 996.368103,946.674316 
	C996.298462,942.158020 996.752869,937.877869 992.205078,934.208191 
	C988.377625,931.119690 989.950256,927.715759 995.774780,922.845764 
	C990.854370,917.070801 985.940918,911.304016 980.652832,904.867615 
z"/>
<path fill="#F89A42" opacity="1.000000" stroke="none" 
	d="
M473.941528,1555.877686 
	C473.941498,1562.456055 473.941498,1568.057007 473.941498,1574.466064 
	C463.802094,1576.648071 454.549255,1575.805420 445.396454,1575.243774 
	C443.865509,1575.149780 441.752777,1572.484619 441.241272,1570.638306 
	C440.463928,1567.832642 440.759369,1564.704102 440.758728,1561.712646 
	C440.741791,1482.135986 440.737732,1402.559448 440.768036,1322.982788 
	C440.769531,1319.048096 441.100464,1315.113525 441.307739,1310.519775 
	C450.336243,1308.425781 458.672943,1308.412842 467.757874,1310.562988 
	C468.793793,1318.983154 469.800385,1327.165283 470.813904,1335.403320 
	C475.234344,1336.669189 477.006561,1333.114258 479.376587,1331.196533 
	C497.424896,1316.593384 517.699768,1306.948975 540.952637,1305.078125 
	C549.764160,1304.369385 558.965149,1305.171631 567.647400,1306.950317 
	C581.333008,1309.754150 592.236816,1317.784424 598.492920,1330.302612 
	C603.205505,1339.732300 607.283020,1349.847900 609.430298,1360.120728 
	C615.485107,1389.088379 615.528198,1418.362305 609.883911,1447.444092 
	C602.536865,1485.299683 581.769470,1502.007935 542.991333,1502.294189 
	C522.996765,1502.441772 504.020050,1498.229980 485.862122,1490.000122 
	C482.627686,1488.534058 479.321350,1487.226685 474.758209,1485.302002 
	C472.785767,1498.019897 474.179596,1509.526855 473.974060,1520.939453 
	C473.770264,1532.256226 473.937256,1543.579834 473.941528,1555.877686 
M532.968018,1473.708618 
	C562.306091,1473.206787 574.662659,1462.814331 577.810181,1434.028076 
	C579.466614,1418.878662 579.937012,1403.464233 579.273987,1388.242188 
	C578.802551,1377.419312 576.510559,1366.418335 573.292908,1356.035522 
	C568.921082,1341.928711 558.293518,1334.592896 543.402771,1333.664917 
	C533.301941,1333.035278 523.126892,1333.398193 514.096558,1338.022461 
	C502.002808,1344.215332 490.477966,1351.525269 478.760498,1358.442993 
	C475.340393,1360.462036 473.935455,1363.586914 473.946411,1367.648560 
	C474.025452,1396.931152 474.041168,1426.214478 473.928986,1455.496826 
	C473.910919,1460.214722 475.649231,1462.875610 480.297516,1464.094604 
	C497.032410,1468.482910 513.660950,1473.358643 532.968018,1473.708618 
z"/>
<path fill="#F89941" opacity="1.000000" stroke="none" 
	d="
M1427.507324,1470.455078 
	C1450.699707,1472.149658 1473.017700,1473.781250 1495.202271,1470.221069 
	C1518.221191,1466.527222 1529.448975,1454.893188 1531.450562,1431.819946 
	C1532.330811,1421.674072 1531.501709,1411.182007 1529.968750,1401.071655 
	C1527.747559,1386.420776 1518.269043,1377.247559 1504.081421,1373.870605 
	C1495.736206,1371.884155 1486.996460,1371.125000 1478.393677,1370.754517 
	C1466.423828,1370.239136 1454.415527,1370.655518 1442.424561,1370.563843 
	C1438.829590,1370.536377 1435.237305,1370.144043 1430.748779,1369.862671 
	C1430.748779,1361.425659 1430.748779,1353.679321 1430.748779,1344.877075 
	C1434.509888,1344.572876 1438.038330,1344.073486 1441.571045,1344.040527 
	C1453.894775,1343.925537 1466.220459,1344.016357 1478.544678,1343.931641 
	C1482.535767,1343.904175 1486.563843,1343.868408 1490.508423,1343.339600 
	C1512.276978,1340.420898 1523.466187,1329.468018 1525.321045,1307.659790 
	C1526.128296,1298.168945 1525.244385,1288.382935 1523.912842,1278.901855 
	C1522.424805,1268.305786 1515.387573,1261.628540 1505.084717,1259.229370 
	C1497.993774,1257.578125 1490.633911,1256.261597 1483.390747,1256.243164 
	C1464.421875,1256.194702 1445.451782,1256.981079 1426.480469,1257.347290 
	C1419.545898,1257.481201 1412.606567,1257.368774 1404.910034,1257.368774 
	C1401.987915,1249.986328 1401.697266,1242.195923 1402.261597,1233.732178 
	C1404.405640,1232.924316 1406.441162,1231.763916 1408.610474,1231.398926 
	C1442.264160,1225.736572 1476.041016,1223.358765 1510.045288,1227.985840 
	C1511.364380,1228.165283 1512.681396,1228.382690 1513.984863,1228.651978 
	C1543.650513,1234.775513 1557.623047,1251.031372 1558.187012,1281.463623 
	C1558.395386,1292.710449 1557.648438,1304.150146 1555.723267,1315.221436 
	C1552.577026,1333.313965 1543.679565,1347.596069 1524.990112,1353.673096 
	C1524.181763,1353.935791 1523.557495,1354.765137 1522.002563,1356.003296 
	C1525.747925,1357.334351 1528.742676,1358.465576 1531.780396,1359.466675 
	C1544.945068,1363.805176 1554.331177,1372.290161 1559.071045,1385.325562 
	C1568.637817,1411.635254 1568.874390,1438.218872 1559.616577,1464.596436 
	C1554.225830,1479.955566 1543.117188,1490.636963 1527.754395,1495.540894 
	C1517.085083,1498.946655 1505.774780,1501.238159 1494.610718,1502.016113 
	C1470.646851,1503.685669 1446.681030,1502.076782 1422.841797,1499.022705 
	C1414.623291,1497.969849 1406.407593,1496.897095 1398.009277,1495.809937 
	C1396.005981,1487.521118 1397.980469,1479.997314 1398.649902,1472.514160 
	C1399.000854,1468.590332 1402.526245,1468.591431 1405.660278,1468.826904 
	C1412.633667,1469.350586 1419.607788,1469.866333 1427.507324,1470.455078 
z"/>
<path fill="#F89941" opacity="1.000000" stroke="none" 
	d="
M891.294250,1306.307983 
	C895.666382,1307.414062 899.253784,1308.216064 902.719666,1309.380249 
	C917.039856,1314.190430 926.566345,1323.914673 930.544678,1338.413940 
	C932.464722,1345.411377 933.812561,1352.807617 933.868225,1360.035156 
	C934.196716,1402.684082 934.081299,1445.336548 934.064819,1487.987793 
	C934.063843,1490.606079 933.630615,1493.223999 933.367188,1496.195312 
	C925.327209,1498.981934 917.557983,1497.964600 908.744995,1496.889893 
	C907.228882,1487.731689 905.736084,1478.714111 903.950989,1467.931152 
	C899.915771,1471.053345 897.145630,1473.180420 894.392578,1475.329346 
	C876.155518,1489.563965 856.127441,1499.888428 832.604919,1500.836304 
	C823.433167,1501.206055 813.851135,1500.278931 804.999023,1497.911743 
	C784.407959,1492.405884 771.789551,1476.480225 770.347412,1455.138672 
	C769.630249,1444.525269 769.683411,1433.799561 770.260620,1423.171997 
	C771.329834,1403.487427 782.944214,1389.239868 802.018799,1384.303833 
	C808.705750,1382.573364 815.818909,1381.922852 822.752869,1381.819946 
	C844.074036,1381.503540 865.402710,1381.718994 886.728333,1381.656982 
	C890.658203,1381.645630 894.587219,1381.303467 899.441711,1381.069336 
	C901.380005,1368.622681 902.031006,1356.911255 896.821472,1345.618530 
	C893.610352,1338.657959 887.332947,1334.943604 880.146362,1334.334595 
	C867.920227,1333.298462 855.575867,1332.673828 843.326721,1333.121338 
	C824.693970,1333.802124 806.100769,1335.555908 787.488220,1336.816895 
	C786.191223,1336.904785 784.873474,1336.686523 783.067505,1336.581787 
	C779.054749,1329.648682 779.845337,1322.021118 779.428711,1314.726562 
	C794.167053,1307.672974 861.300598,1302.599609 891.294250,1306.307983 
M826.368896,1406.811768 
	C811.671997,1409.354004 805.755493,1413.873169 804.479614,1425.781494 
	C803.530701,1434.636963 803.590210,1443.757935 804.533081,1452.619019 
	C805.737854,1463.941406 812.698914,1470.319458 824.102783,1471.979736 
	C828.347961,1472.597900 832.739258,1472.753540 837.022522,1472.477539 
	C858.987000,1471.063354 878.045349,1462.223389 895.468323,1449.256836 
	C899.297852,1446.406860 900.848328,1442.796021 900.754761,1438.114380 
	C900.615295,1431.136108 900.834290,1424.151245 900.720032,1417.171997 
	C900.552063,1406.908691 900.115234,1406.372192 889.968872,1406.371582 
	C869.358459,1406.370483 848.748047,1406.568481 826.368896,1406.811768 
z"/>
<path fill="#F89A42" opacity="1.000000" stroke="none" 
	d="
M1293.999023,1230.286377 
	C1313.978638,1230.866089 1332.963623,1231.310791 1351.936401,1232.061035 
	C1362.015137,1232.459473 1362.367432,1233.108887 1362.017944,1243.436768 
	C1361.476685,1259.430298 1361.476807,1259.446655 1345.719360,1259.455933 
	C1319.064819,1259.471558 1292.410400,1259.460693 1265.755859,1259.471802 
	C1263.090942,1259.472900 1260.421265,1259.461548 1257.761719,1259.604126 
	C1242.934692,1260.399170 1235.624268,1266.201782 1235.024170,1280.703003 
	C1234.171631,1301.304321 1234.908936,1321.971558 1235.011719,1342.610596 
	C1235.014648,1343.209961 1235.521118,1343.806763 1236.303223,1345.527954 
	C1239.528320,1345.826416 1243.359619,1346.476318 1247.192871,1346.488281 
	C1275.513062,1346.577393 1303.833740,1346.500610 1332.153931,1346.583862 
	C1336.374756,1346.596191 1340.594116,1347.174438 1345.416016,1347.536133 
	C1345.416016,1356.279175 1345.416016,1364.137695 1345.416016,1373.156372 
	C1341.329346,1373.518311 1337.500122,1374.140137 1333.669067,1374.151733 
	C1305.348877,1374.237183 1277.028320,1374.197510 1248.707886,1374.208984 
	C1246.043335,1374.209961 1243.378784,1374.302246 1240.714111,1374.332642 
	C1236.597778,1374.379639 1234.665283,1376.567383 1234.584839,1380.565918 
	C1234.524658,1383.563354 1234.450439,1386.561401 1234.449463,1389.559082 
	C1234.438965,1420.878174 1234.468872,1452.197144 1234.408936,1483.516113 
	C1234.400879,1487.751099 1233.959961,1491.985107 1233.674194,1497.016602 
	C1222.727783,1497.016602 1212.593506,1497.016602 1201.364746,1497.016602 
	C1201.006348,1493.323242 1200.370972,1489.811157 1200.368286,1486.298706 
	C1200.315308,1417.663330 1200.319458,1349.027954 1200.384521,1280.392578 
	C1200.388306,1276.416016 1200.770874,1272.402588 1201.385498,1268.470093 
	C1204.462036,1248.783203 1216.257202,1236.955688 1235.217896,1232.232422 
	C1240.968628,1230.799683 1247.065918,1230.335449 1253.019287,1230.224487 
	C1266.341064,1229.976440 1279.671997,1230.229492 1293.999023,1230.286377 
z"/>
<path fill="#F89941" opacity="1.000000" stroke="none" 
	d="
M1041.689941,1412.252441 
	C1048.877197,1432.635010 1055.812256,1452.275391 1062.707031,1471.801636 
	C1069.428467,1471.460571 1069.419800,1466.602295 1070.640015,1463.178101 
	C1078.800049,1440.278809 1086.769043,1417.311401 1094.803223,1394.367310 
	C1103.607910,1369.223145 1112.373291,1344.065063 1121.244751,1318.944458 
	C1124.593140,1309.463135 1124.706665,1309.381714 1134.735474,1309.363281 
	C1142.269043,1309.349609 1149.803345,1309.699585 1158.746582,1309.922729 
	C1157.413086,1314.855713 1156.772461,1318.374146 1155.526978,1321.663452 
	C1131.822144,1384.262695 1108.076172,1446.846436 1084.261230,1509.403931 
	C1078.776245,1523.812134 1071.553833,1537.281250 1061.406006,1549.018311 
	C1047.519653,1565.079102 1030.174561,1574.687500 1008.926575,1576.897461 
	C1007.309875,1577.065674 1005.660400,1576.919678 1003.720703,1576.919678 
	C1000.457092,1570.266113 999.691772,1563.569702 1000.620911,1555.255127 
	C1028.385376,1546.909180 1046.620483,1528.162476 1055.814819,1500.828613 
	C1054.888428,1499.662842 1054.515625,1498.751587 1054.094971,1498.728882 
	C1043.497681,1498.161621 1038.936035,1491.625000 1035.447754,1482.285522 
	C1015.639893,1429.251343 995.308838,1376.412842 975.229980,1323.479614 
	C973.747070,1319.570190 972.847351,1315.439453 971.387451,1310.417725 
	C982.157654,1308.655029 991.742065,1309.295288 1001.302307,1309.633179 
	C1004.993896,1309.763550 1006.199524,1312.649902 1007.245605,1315.514526 
	C1009.530212,1321.770508 1011.752319,1328.049561 1013.984924,1334.324463 
	C1023.138855,1360.052002 1032.287109,1385.781616 1041.689941,1412.252441 
z"/>
<path fill="#F89941" opacity="1.000000" stroke="none" 
	d="
M665.921204,1380.000000 
	C665.921143,1328.810913 665.921143,1278.621948 665.921143,1227.939575 
	C676.894592,1225.587769 686.667419,1226.392456 697.632996,1227.279419 
	C697.980469,1232.238159 698.571228,1236.729126 698.568359,1241.219727 
	C698.526550,1306.792480 698.390625,1372.365356 698.334717,1437.938110 
	C698.330750,1442.581909 698.306213,1447.308594 699.106140,1451.853271 
	C701.034058,1462.807007 707.422485,1468.873169 718.469971,1470.246826 
	C724.061035,1470.942017 729.760254,1470.957886 735.409485,1470.939575 
	C740.735046,1470.922241 743.455505,1473.309937 743.791077,1478.578247 
	C743.875549,1479.904175 744.084045,1481.225708 744.296875,1482.539429 
	C746.382874,1495.414551 749.846863,1496.976440 731.043396,1499.717285 
	C723.830505,1500.768677 716.419067,1501.451782 709.166138,1501.055908 
	C682.639954,1499.607544 666.922119,1483.471436 666.108032,1456.888184 
	C665.639465,1441.590332 665.948914,1426.268433 665.924316,1410.957275 
	C665.908325,1400.971558 665.921265,1390.985718 665.921204,1380.000000 
z"/>
<path fill="#F0D9B6" opacity="1.000000" stroke="none" 
	d="
M532.061951,1473.702271 
	C513.660950,1473.358643 497.032410,1468.482910 480.297516,1464.094604 
	C475.649231,1462.875610 473.910919,1460.214722 473.928986,1455.496826 
	C474.041168,1426.214478 474.025452,1396.931152 473.946411,1367.648560 
	C473.935455,1363.586914 475.340393,1360.462036 478.760498,1358.442993 
	C490.477966,1351.525269 502.002808,1344.215332 514.096558,1338.022461 
	C523.126892,1333.398193 533.301941,1333.035278 543.402771,1333.664917 
	C558.293518,1334.592896 568.921082,1341.928711 573.292908,1356.035522 
	C576.510559,1366.418335 578.802551,1377.419312 579.273987,1388.242188 
	C579.937012,1403.464233 579.466614,1418.878662 577.810181,1434.028076 
	C574.662659,1462.814331 562.306091,1473.206787 532.061951,1473.702271 
z"/>
<path fill="#F0D9B5" opacity="1.000000" stroke="none" 
	d="
M827.253296,1406.748047 
	C848.748047,1406.568481 869.358459,1406.370483 889.968872,1406.371582 
	C900.115234,1406.372192 900.552063,1406.908691 900.720032,1417.171997 
	C900.834290,1424.151245 900.615295,1431.136108 900.754761,1438.114380 
	C900.848328,1442.796021 899.297852,1446.406860 895.468323,1449.256836 
	C878.045349,1462.223389 858.987000,1471.063354 837.022522,1472.477539 
	C832.739258,1472.753540 828.347961,1472.597900 824.102783,1471.979736 
	C812.698914,1470.319458 805.737854,1463.941406 804.533081,1452.619019 
	C803.590210,1443.757935 803.530701,1434.636963 804.479614,1425.781494 
	C805.755493,1413.873169 811.671997,1409.354004 827.253296,1406.748047 
z"/>
</svg>